<svg width="36" height="36" viewBox="0 0 36 36" fill="none" xmlns="http://www.w3.org/2000/svg">
<circle cx="18" cy="18" r="18" fill="#171717"/>
<g clip-path="url(#clip0_71124_9001)">
<path d="M18 16.8333C18.923 16.8333 19.8252 16.5596 20.5927 16.0469C21.3601 15.5341 21.9582 14.8052 22.3114 13.9525C22.6646 13.0998 22.7571 12.1615 22.577 11.2562C22.3969 10.351 21.9525 9.51948 21.2998 8.86684C20.6472 8.21419 19.8157 7.76974 18.9104 7.58967C18.0052 7.40961 17.0669 7.50202 16.2141 7.85523C15.3614 8.20844 14.6326 8.80658 14.1198 9.57401C13.607 10.3414 13.3333 11.2437 13.3333 12.1667C13.3333 13.4043 13.825 14.5913 14.7002 15.4665C15.5753 16.3417 16.7623 16.8333 18 16.8333Z" fill="white"/>
<path d="M25 28.5C25.3094 28.5 25.6062 28.3771 25.825 28.1583C26.0437 27.9395 26.1667 27.6428 26.1667 27.3333C26.1667 25.1674 25.3063 23.0902 23.7747 21.5586C22.2432 20.0271 20.1659 19.1667 18 19.1667C15.8341 19.1667 13.7568 20.0271 12.2253 21.5586C10.6937 23.0902 9.83333 25.1674 9.83333 27.3333C9.83333 27.6428 9.95625 27.9395 10.175 28.1583C10.3938 28.3771 10.6906 28.5 11 28.5H25Z" fill="white"/>
</g>
<defs>
<clipPath id="clip0_71124_9001">
<rect width="28" height="28" fill="white" transform="translate(4 4)"/>
</clipPath>
</defs>
</svg>
