<svg width="222" height="237" viewBox="0 0 222 237" fill="none" xmlns="http://www.w3.org/2000/svg">
<rect width="222" height="237" fill="#171717"/>
<g clip-path="url(#clip0_71250_9993)">
<path d="M133 84.1974H89C86.0826 84.1974 83.2847 85.402 81.2218 87.5464C79.1589 89.6907 78 92.599 78 95.6316V141.368C78 144.401 79.1589 147.309 81.2218 149.454C83.2847 151.598 86.0826 152.803 89 152.803H133C135.917 152.803 138.715 151.598 140.778 149.454C142.841 147.309 144 144.401 144 141.368V95.6316C144 92.599 142.841 89.6907 140.778 87.5464C138.715 85.402 135.917 84.1974 133 84.1974ZM89 91.8202H133C133.972 91.8202 134.905 92.2217 135.593 92.9365C136.28 93.6513 136.667 94.6207 136.667 95.6316V127.495L124.933 117.09C123.115 115.535 120.834 114.685 118.48 114.685C116.126 114.685 113.845 115.535 112.027 117.09L85.3333 140.225V95.6316C85.3333 94.6207 85.7196 93.6513 86.4073 92.9365C87.0949 92.2217 88.0275 91.8202 89 91.8202V91.8202ZM133 145.18H91.0533L116.72 122.921C117.213 122.541 117.811 122.335 118.425 122.335C119.039 122.335 119.637 122.541 120.13 122.921L136.667 137.557V141.368C136.667 142.379 136.28 143.349 135.593 144.063C134.905 144.778 133.972 145.18 133 145.18Z" fill="white"/>
<path d="M96.3335 110.877C99.3711 110.877 101.833 108.318 101.833 105.16C101.833 102.003 99.3711 99.443 96.3335 99.443C93.2959 99.443 90.8335 102.003 90.8335 105.16C90.8335 108.318 93.2959 110.877 96.3335 110.877Z" fill="white"/>
</g>
<defs>
<clipPath id="clip0_71250_9993">
<rect width="88" height="91.4737" fill="white" transform="translate(67 72.7632)"/>
</clipPath>
</defs>
</svg>
